<svg width="41" height="40" viewBox="0 0 41 40" fill="none" xmlns="http://www.w3.org/2000/svg">
<path d="M34.9659 3H5.28369C4.17912 3 3.28369 3.89543 3.28369 5V19.4299C3.28369 20.5345 4.17912 21.4299 5.28369 21.4299H34.9659C36.0705 21.4299 36.9659 20.5345 36.9659 19.4299V5C36.9659 3.89543 36.0705 3 34.9659 3Z" stroke="#0E2638" stroke-width="2.5"/>
<path d="M3.28369 12.2148H36.9659" stroke="#0E2638" stroke-width="2.5"/>
<path d="M7.41479 16.6636L32.8354 16.6636" stroke="#0E2638" stroke-width="2.5" stroke-linecap="round"/>
<path d="M7.41479 7.13086H10.5924" stroke="#0E2638" stroke-width="2.5" stroke-linecap="round"/>
<path d="M11.8631 26.1963L10.7852 28.3522C10.2691 29.3843 10.3161 30.6086 10.9098 31.5982V31.5982C11.5035 32.5877 11.5506 33.812 11.0345 34.8442L9.95654 37" stroke="#0E2638" stroke-width="2.5" stroke-linecap="round"/>
<path d="M20.7605 26.1963L19.6826 28.3522C19.1665 29.3843 19.2135 30.6086 19.8073 31.5982V31.5982C20.401 32.5877 20.448 33.812 19.9319 34.8442L18.854 37" stroke="#0E2638" stroke-width="2.5" stroke-linecap="round"/>
<path d="M29.6573 26.1963L28.5793 28.3522C28.0633 29.3843 28.1103 30.6086 28.704 31.5982V31.5982C29.2977 32.5877 29.3447 33.812 28.8287 34.8442L27.7507 37" stroke="#0E2638" stroke-width="2.5" stroke-linecap="round"/>
</svg>
