<svg width="41" height="40" viewBox="0 0 41 40" fill="none" xmlns="http://www.w3.org/2000/svg">
<path d="M16.9392 20.7327L10.8575 14.6511C10.1856 13.9792 10.0793 12.9273 10.603 12.1345L11.2716 11.1224C11.8663 10.2221 12.637 9.45147 13.5372 8.85678L14.5491 8.1884C15.3419 7.66469 16.3937 7.77109 17.0656 8.44297L19.8549 11.2323M19.6827 23.4764L26.0437 29.8373C26.6998 30.4934 27.721 30.6121 28.5101 30.124L29.2944 29.6388C30.3051 29.0135 31.1639 28.1709 31.8082 27.1722L32.4963 26.1056C33.007 25.314 32.896 24.2734 32.2299 23.6072L29.0811 20.4583" stroke="#0E2638" stroke-width="2.3"/>
<path d="M11.0752 11.1298L9.2053 9.25996C8.98896 9.04362 8.756 8.84456 8.50856 8.6646L6.95077 7.53166C6.27431 7.03969 5.90138 6.23211 5.96553 5.39813V5.39813C6.0621 4.14274 7.11389 3.17334 8.37299 3.17334V3.17334C9.19976 3.17334 9.97217 3.59573 10.416 4.29324L11.3793 5.80691C11.5421 6.06278 11.7251 6.30521 11.9266 6.53188L13.8188 8.66059" stroke="#0E2638" stroke-width="2.3" stroke-linecap="round"/>
<path d="M32.2014 27.5918L34.0713 29.4617C34.2877 29.6781 34.5206 29.8771 34.768 30.0571L36.3258 31.19C37.0023 31.682 37.3752 32.4896 37.3111 33.3236V33.3236C37.2145 34.5789 36.1627 35.5483 34.9036 35.5483V35.5483C34.0769 35.5483 33.3044 35.1259 32.8606 34.4284L31.8973 32.9148C31.7345 32.6589 31.5515 32.4165 31.35 32.1898L29.4578 30.0611" stroke="#0E2638" stroke-width="2.3" stroke-linecap="round"/>
<rect x="16.9106" y="19.7212" width="5.13214" height="18.5906" rx="2.56607" transform="rotate(45 16.9106 19.7212)" stroke="#0E2638" stroke-width="2.3"/>
<path d="M33.8427 17.0562C30.2351 20.6638 21.6886 24.4985 18.7825 21.5924C15.8763 18.6863 19.7111 10.1398 23.3187 6.53215C26.9263 2.92454 32.2067 2.35588 35.1128 5.26201C38.019 8.16814 37.4503 13.4486 33.8427 17.0562Z" stroke="#0E2638" stroke-width="2.3"/>
<path d="M30.9399 14.1531C27.3323 17.7607 20.0856 22.8953 18.7828 21.5925C17.4801 20.2898 22.6146 13.0431 26.2222 9.43547C29.8299 5.82786 33.8105 3.95941 35.1132 5.26215C36.416 6.5649 34.5475 10.5455 30.9399 14.1531Z" stroke="#0E2638" stroke-width="2.3"/>
</svg>
