<svg width="41" height="40" viewBox="0 0 41 40" fill="none" xmlns="http://www.w3.org/2000/svg">
<path d="M33.0418 2H7.7085C6.60393 2 5.7085 2.89543 5.7085 4V36C5.7085 37.1046 6.60393 38 7.7085 38H33.0418C34.1464 38 35.0418 37.1046 35.0418 36V4C35.0418 2.89543 34.1464 2 33.0418 2Z" stroke="#0E2638" stroke-width="2.5"/>
<path d="M5.7085 11.6665H35.0418" stroke="#0E2638" stroke-width="2.5"/>
<path d="M9.70801 6.6665H13.0413" stroke="#0E2638" stroke-width="2.5" stroke-linecap="round"/>
<circle cx="26.3748" cy="6.66683" r="1.33333" fill="#0E2638"/>
<circle cx="30.3753" cy="6.66683" r="1.33333" fill="#0E2638"/>
<circle cx="20.3757" cy="25.3332" r="8.66667" stroke="#0E2638" stroke-width="2.5"/>
<path d="M11.709 25.333H15.0774C15.9373 25.333 16.7915 25.4716 17.6073 25.7435L17.8458 25.8231C19.488 26.3704 21.2633 26.3704 22.9055 25.8231L23.1441 25.7435C23.9598 25.4716 24.814 25.333 25.6739 25.333H29.0423" stroke="#0E2638" stroke-width="2.5"/>
</svg>
