<svg width="42" height="42" viewBox="0 0 42 42" fill="none" xmlns="http://www.w3.org/2000/svg">
<path d="M2.125 21H7.46875" stroke="#0E2638" stroke-width="2.5" stroke-linecap="round"/>
<path d="M14 21L17.5625 21" stroke="#0E2638" stroke-width="2.5" stroke-linecap="round"/>
<path d="M24.6875 21L28.25 21" stroke="#0E2638" stroke-width="2.5" stroke-linecap="round"/>
<path d="M14.5938 28.7188V27.8326C14.5938 26.5274 15.2306 25.3042 16.2999 24.5557L17.5625 23.6719" stroke="#0E2638" stroke-width="2.5" stroke-linecap="round"/>
<path d="M14.5938 13.2812V14.1674C14.5938 15.4726 15.2306 16.6958 16.2999 17.4443L17.5625 18.3281" stroke="#0E2638" stroke-width="2.5" stroke-linecap="round"/>
<path d="M17.5625 18.3281H24.6875" stroke="#0E2638" stroke-width="2.5" stroke-linecap="round"/>
<path d="M27.6562 28.7188V27.8326C27.6562 26.5274 27.0194 25.3042 25.9501 24.5557L24.6875 23.6719" stroke="#0E2638" stroke-width="2.5" stroke-linecap="round"/>
<path d="M27.6562 13.2812V14.1674C27.6562 15.4726 27.0194 16.6958 25.9501 17.4443L24.6875 18.3281" stroke="#0E2638" stroke-width="2.5" stroke-linecap="round"/>
<path d="M34.7812 21H40.125" stroke="#0E2638" stroke-width="2.5" stroke-linecap="round"/>
<path d="M21.125 2L21.125 7.34375" stroke="#0E2638" stroke-width="2.5" stroke-linecap="round"/>
<path d="M21.125 34.6562L21.125 40" stroke="#0E2638" stroke-width="2.5" stroke-linecap="round"/>
<circle cx="21.125" cy="21" r="16.625" stroke="#0E2638" stroke-width="2.5"/>
<ellipse cx="21.125" cy="21" rx="3.5625" ry="7.71875" stroke="#0E2638" stroke-width="2.5"/>
</svg>
