<svg width="40" height="40" viewBox="0 0 40 40" fill="none" xmlns="http://www.w3.org/2000/svg">
<path d="M12.5385 11.415H10.0938C8.98918 11.415 8.09375 12.3105 8.09375 13.415V35.9997C8.09375 37.1042 8.98918 37.9997 10.0938 37.9997H30.463C31.5675 37.9997 32.463 37.1042 32.463 35.9997V13.415C32.463 12.3105 31.5675 11.415 30.463 11.415H28.0322" stroke="#0E2638" stroke-width="2.5"/>
<mask id="mask0_2273_189990" style="mask-type:alpha" maskUnits="userSpaceOnUse" x="7" y="2" width="26" height="15">
<rect x="8.78906" y="3.25" width="22.4231" height="11.9" fill="#D9D9D9" stroke="#DD8510" stroke-width="2.5"/>
</mask>
<g mask="url(#mask0_2273_189990)">
<path d="M11.9707 10.3692V11.1384V11.3538C11.9707 12.4584 12.8661 13.3538 13.9707 13.3538H26.5861C27.6907 13.3538 28.5861 12.4584 28.5861 11.3538V11.1384V10.3692C28.5861 9.26465 27.6907 8.36922 26.5861 8.36922H25.1553C24.603 8.36922 24.1553 7.9215 24.1553 7.36922V6.7219C24.1553 6.71243 24.1546 6.70297 24.1533 6.69361C23.5081 2.27693 17.146 2.28995 16.4042 6.69142C16.4024 6.7022 16.4015 6.71318 16.4015 6.72412V7.36922C16.4015 7.9215 15.9538 8.36922 15.4015 8.36922H13.9707C12.8661 8.36922 11.9707 9.26465 11.9707 10.3692Z" stroke="#0E2638" stroke-width="2.5"/>
</g>
<line x1="13.7734" y1="20.1348" x2="26.7811" y2="20.1348" stroke="#0E2638" stroke-width="2.5" stroke-linecap="round"/>
<line x1="13.7734" y1="24.5654" x2="26.7811" y2="24.5654" stroke="#0E2638" stroke-width="2.5" stroke-linecap="round"/>
<line x1="13.7734" y1="28.9961" x2="26.7811" y2="28.9961" stroke="#0E2638" stroke-width="2.5" stroke-linecap="round"/>
</svg>
