<svg width="41" height="40" viewBox="0 0 41 40" fill="none" xmlns="http://www.w3.org/2000/svg">
<path d="M16.1663 26.9749L14.1027 24.9113C13.3216 24.1302 12.0553 24.1302 11.2743 24.9113L4.76342 31.4221C3.98237 32.2032 3.98237 33.4695 4.76342 34.2506L6.82699 36.3141C7.60804 37.0952 8.87437 37.0952 9.65542 36.3141L16.1663 29.8033C16.9473 29.0222 16.9473 27.7559 16.1663 26.9749Z" stroke="#0E2638" stroke-width="2.3"/>
<path d="M36.7339 5.28813L36.0045 4.55874C35.2235 3.7777 33.9572 3.7777 33.1761 4.55875L29.3336 8.40122C28.5526 9.18227 28.5526 10.4486 29.3336 11.2297L30.063 11.959C30.8441 12.7401 32.1104 12.7401 32.8915 11.959L36.7339 8.11656C37.515 7.33551 37.515 6.06918 36.7339 5.28813Z" stroke="#0E2638" stroke-width="2.3"/>
<path d="M14.0825 17.2104L23.8023 26.9302M18.0851 13.2079L27.8048 22.9277" stroke="#0E2638" stroke-width="2.3"/>
<path d="M15.3403 25.7864L18.7995 22.3272M29.4915 11.6353L23.2021 17.9246" stroke="#0E2638" stroke-width="2.3" stroke-linecap="round"/>
<path d="M10.6235 21.3838L19.7432 30.5034" stroke="#0E2638" stroke-width="2.3" stroke-linecap="round"/>
<path d="M35.9035 24.6744C38.2595 27.0305 38.6742 30.5928 37.1474 33.3734L37.146 33.372L33.4185 29.6445L30.5193 32.5437L34.2468 36.2712L34.2482 36.2726C31.4676 37.7994 27.9053 37.3848 25.5492 35.0287C22.69 32.1694 22.69 27.5337 25.5492 24.6744C28.4085 21.8152 33.0442 21.8152 35.9035 24.6744Z" stroke="#0E2638" stroke-width="2.3"/>
<path d="M16.2003 4.97152C13.8443 2.61547 10.282 2.20083 7.50134 3.72761L7.50274 3.72901L11.2303 7.45655L8.33108 10.3557L4.60355 6.62821L4.60214 6.62681C3.07536 9.40743 3.49 12.9697 5.84606 15.3258C8.70531 18.185 13.3411 18.185 16.2003 15.3258C19.0596 12.4665 19.0596 7.83078 16.2003 4.97152Z" stroke="#0E2638" stroke-width="2.3"/>
</svg>
