<svg width="41" height="40" viewBox="0 0 41 40" fill="none" xmlns="http://www.w3.org/2000/svg">
<path d="M34.1193 15.5713V10.8242C34.1193 9.71965 33.2238 8.82422 32.1193 8.82422H32.071C30.9665 8.82422 30.071 9.71965 30.071 10.8242L30.071 12.1977" stroke="#0E2638" stroke-width="2.5" stroke-linecap="round"/>
<path d="M20.625 21.8633V27.2554" stroke="#0E2638" stroke-width="2.5" stroke-linecap="round"/>
<path d="M17.929 24.5591H23.321" stroke="#0E2638" stroke-width="2.5" stroke-linecap="round"/>
<path d="M2.625 19.6429L16.7038 7.48678C18.9562 5.54197 22.2938 5.54196 24.5462 7.48678L38.625 19.6429" stroke="#0E2638" stroke-width="2.5" stroke-linecap="round"/>
<path d="M6.35229 16.5503V29.5815C6.35229 33.0164 9.2594 35.8417 12.6117 35.0932C13.1177 34.9802 13.6031 34.8526 14.0439 34.7089C16.7826 33.8159 20.6254 31.3785 20.6254 31.3785" stroke="#0E2638" stroke-width="2.5" stroke-linecap="round"/>
<path d="M34.8984 16.5503V29.5815C34.8984 33.0164 31.9913 35.8417 28.639 35.0932C28.133 34.9802 27.6477 34.8526 27.2068 34.7089C24.4682 33.8159 20.6253 31.3785 20.6253 31.3785" stroke="#0E2638" stroke-width="2.5" stroke-linecap="round"/>
<path d="M12.1399 21.4641C12.1399 26.1396 17.6549 30.3901 20.6245 31.3789C23.8617 30.301 29.1091 25.1616 29.1091 21.4641C29.1091 18.8819 27.0198 16.7886 24.4425 16.7886C22.8643 16.7886 21.469 17.5736 20.6245 18.7752C19.78 17.5736 18.3847 16.7886 16.8064 16.7886C14.2292 16.7886 12.1399 18.8819 12.1399 21.4641Z" stroke="#0E2638" stroke-width="2.5" stroke-linecap="round" stroke-linejoin="round"/>
</svg>
