<svg width="41" height="40" viewBox="0 0 41 40" fill="none" xmlns="http://www.w3.org/2000/svg">
<path d="M26.8125 36.3125H36.3437C37.4483 36.3125 38.3438 35.4171 38.3438 34.3125V30.0625C38.3438 22.3305 32.0757 16.0625 24.3437 16.0625H24.0313C22.9267 16.0625 22.0312 16.9579 22.0312 18.0625V29.5625" stroke="#0E2638" stroke-width="2.5"/>
<path d="M28.7812 16.0625V19.5937C28.7812 24.012 32.363 27.5938 36.7813 27.5938H38.3438" stroke="#0E2638" stroke-width="2.5" stroke-linecap="round"/>
<circle cx="23.4375" cy="33.7812" r="4.21875" stroke="#0E2638" stroke-width="2.5"/>
<path d="M28.7812 15.5V13.8125C28.7812 12.8805 28.0257 12.125 27.0938 12.125V12.125C26.1618 12.125 25.4062 12.8805 25.4062 13.8125V15.5" stroke="#0E2638" stroke-width="2.5"/>
<path d="M11.9062 32.9375V29.2812C11.9062 28.1939 11.0248 27.3125 9.9375 27.3125V27.3125C8.85019 27.3125 7.96875 28.1939 7.96875 29.2813V32.9375" stroke="#0E2638" stroke-width="2.5"/>
<rect x="2.90625" y="32.9375" width="14.0625" height="3.9375" rx="1.96875" stroke="#0E2638" stroke-width="2.5"/>
<path d="M9.9375 27.3125V10.5781C9.9375 5.84056 13.7781 2 18.5156 2V2C23.2532 2 27.0938 5.84056 27.0938 10.5781V12.125" stroke="#0E2638" stroke-width="2.5" stroke-linecap="round"/>
</svg>
