<svg width="41" height="40" viewBox="0 0 41 40" fill="none" xmlns="http://www.w3.org/2000/svg">
<path d="M5.03711 38.0006H28.2804C29.3849 38.0006 30.2804 37.1051 30.2804 36.0006V32.2388C30.2804 31.1195 30.0455 30.0126 29.5908 28.9897L29.5645 28.9305C29.1799 28.0652 28.6447 27.275 27.9839 26.5967L19.0482 17.4258C17.6727 16.0142 17.5305 13.8111 18.7131 12.2344L19.9506 10.5843C20.3283 10.0807 20.9211 9.78434 21.5506 9.78434H24.2627C24.7932 9.78434 25.3019 9.57362 25.6769 9.19855L25.8027 9.07283C26.1777 8.69775 26.3885 8.18905 26.3885 7.65861V5.42358C26.3885 4.89314 26.1777 4.38444 25.8027 4.00936L25.6769 3.88364C25.3019 3.50857 24.7932 3.29785 24.2627 3.29785H10.8749C9.77038 3.29785 8.87495 4.19328 8.87495 5.29785V12.9321C8.87495 14.064 8.63478 15.1829 8.17032 16.215L3.74174 26.0563C3.27727 27.0885 3.03711 28.2074 3.03711 29.3393V36.0006C3.03711 37.1051 3.93254 38.0006 5.03711 38.0006Z" stroke="#0E2638" stroke-width="2.5" stroke-linecap="round" stroke-linejoin="round"/>
<path d="M8.875 33L18.875 33" stroke="#0E2638" stroke-width="2.5" stroke-linecap="round"/>
<path d="M8.875 14.6484H17.3074" stroke="#0E2638" stroke-width="2.5" stroke-linecap="round" stroke-linejoin="round"/>
<path d="M20.5513 10.1084L22.2356 12.2139C22.8236 12.9488 23.6518 13.4528 24.5746 13.6374L26.3891 14.0003" stroke="#0E2638" stroke-width="2.5" stroke-linecap="round" stroke-linejoin="round"/>
<circle cx="33.5243" cy="6.54046" r="1.2973" fill="#0E2638"/>
<circle cx="37.4155" cy="3.2973" r="1.2973" fill="#0E2638"/>
<circle cx="37.4155" cy="9.13519" r="1.2973" fill="#0E2638"/>
</svg>
